<svg width="640" height="172" viewBox="0 0 640 172" fill="none" xmlns="http://www.w3.org/2000/svg">
<path d="M3.88912 119.289C3.52643 118.245 2.38664 117.694 1.34331 118.056C0.299979 118.419 -0.251796 119.559 0.110885 120.602L3.88912 119.289ZM298.469 119.945L299.769 121.466L298.469 119.945ZM267.42 74.0555L266.42 72.3235L267.42 74.0555ZM394.621 159.02L395.038 160.976L394.621 159.02ZM639.619 14.6745C640.267 13.7804 640.069 12.5298 639.174 11.8812L624.605 1.31106C623.711 0.662426 622.46 0.861385 621.812 1.75545C621.163 2.64951 621.362 3.90011 622.256 4.54875L635.207 13.9444L625.811 26.8951C625.162 27.7892 625.361 29.0398 626.255 29.6884C627.15 30.3371 628.4 30.1381 629.049 29.244L639.619 14.6745ZM2 119.945L0.110885 120.602C5.53917 136.218 21.9282 148.52 44.0856 157.134C66.3422 165.786 94.8782 170.905 125.406 171.843C186.389 173.717 255.95 158.916 299.769 121.466L298.469 119.945L297.17 118.425C254.409 154.971 186.002 169.703 125.529 167.845C95.3276 166.917 67.2633 161.853 45.5349 153.406C23.7074 144.92 8.72707 133.206 3.88912 119.289L2 119.945ZM298.469 119.945L299.769 121.466C308.677 113.852 313.034 105.92 313.85 98.4148C314.667 90.8972 311.894 84.1201 307.156 78.9317C297.778 68.6604 280.364 64.2717 266.42 72.3235L267.42 74.0555L268.42 75.7875C280.547 68.7853 295.935 72.5749 304.202 81.6288C308.288 86.103 310.548 91.7751 309.873 97.9827C309.197 104.203 305.539 111.272 297.17 118.425L298.469 119.945ZM267.42 74.0555L266.42 72.3235C258.956 76.6334 253.733 81.644 250.627 87.1544C247.506 92.689 246.586 98.6169 247.558 104.6C249.487 116.467 258.803 128.343 272.591 138.273C300.24 158.185 347.096 171.188 395.038 160.976L394.621 159.02L394.205 157.064C347.37 167.039 301.665 154.282 274.928 135.027C261.523 125.372 253.189 114.312 251.506 103.959C250.673 98.8317 251.456 93.8282 254.111 89.1188C256.78 84.385 261.404 79.8388 268.42 75.7875L267.42 74.0555ZM394.621 159.02L395.038 160.976C447.402 149.822 475.66 118.205 506.982 87.3012C538.298 56.4041 572.929 25.8774 638.314 15.4752L638 13.5L637.686 11.5248C571.071 22.1226 535.702 53.3459 504.173 84.4538C472.651 115.555 445.219 146.198 394.205 157.064L394.621 159.02Z" fill="#2D2D2D"/>
</svg>
