<svg width="503" height="49" viewBox="0 0 503 49" fill="none" xmlns="http://www.w3.org/2000/svg">
<path d="M23.08 48.7C8.87 48.7 0.89 43.1 0.89 32.18V31.76H11.39V33.02C11.39 37.36 13.56 39.11 23.08 39.11C31.48 39.11 33.44 37.85 33.44 34.7C33.44 31.83 31.83 30.78 27 29.94L13.84 28.05C5.44 26.72 0.47 22.52 0.47 14.89C0.47 7.82 6.21 0.399999 21.96 0.399999C36.38 0.399999 43.1 7.05 43.1 16.92V17.34H32.53V16.36C32.53 11.88 30.22 9.99 20.91 9.99C13.35 9.99 11.04 11.46 11.04 14.47C11.04 17.2 12.58 18.18 16.5 18.88L29.66 20.98C40.16 22.66 43.94 27.77 43.94 34.21C43.94 41.84 37.99 48.7 23.08 48.7ZM87.906 48H48.216V1.1H87.906V10.55H58.716V19.72H86.856V29.1H58.716V38.55H87.906V48ZM103.15 48H92.6496V1.1H103.85L120.65 23.29L127.09 33.16H127.86L127.37 23.71V1.1H137.87V48H126.67L109.38 25.6L103.43 16.78H102.73L103.15 25.39V48ZM164.721 48.7C150.511 48.7 142.531 43.1 142.531 32.18V31.76H153.031V33.02C153.031 37.36 155.201 39.11 164.721 39.11C173.121 39.11 175.081 37.85 175.081 34.7C175.081 31.83 173.471 30.78 168.641 29.94L155.481 28.05C147.081 26.72 142.111 22.52 142.111 14.89C142.111 7.82 147.851 0.399999 163.601 0.399999C178.021 0.399999 184.741 7.05 184.741 16.92V17.34H174.171V16.36C174.171 11.88 171.861 9.99 162.551 9.99C154.991 9.99 152.681 11.46 152.681 14.47C152.681 17.2 154.221 18.18 158.141 18.88L171.301 20.98C181.801 22.66 185.581 27.77 185.581 34.21C185.581 41.84 179.631 48.7 164.721 48.7ZM198.467 48H186.707L207.217 1.1H222.197L242.847 48H230.807L226.397 37.64H202.947L198.467 48ZM211.417 17.97L207.007 28.19H222.337L217.927 17.97L215.057 10.69H214.287L211.417 17.97ZM266.576 48.7C252.366 48.7 244.386 43.1 244.386 32.18V31.76H254.886V33.02C254.886 37.36 257.056 39.11 266.576 39.11C274.976 39.11 276.936 37.85 276.936 34.7C276.936 31.83 275.326 30.78 270.496 29.94L257.336 28.05C248.936 26.72 243.966 22.52 243.966 14.89C243.966 7.82 249.706 0.399999 265.456 0.399999C279.876 0.399999 286.596 7.05 286.596 16.92V17.34H276.026V16.36C276.026 11.88 273.716 9.99 264.406 9.99C256.846 9.99 254.536 11.46 254.536 14.47C254.536 17.2 256.076 18.18 259.996 18.88L273.156 20.98C283.656 22.66 287.436 27.77 287.436 34.21C287.436 41.84 281.486 48.7 266.576 48.7ZM302.212 48H291.712V1.1H302.212V48Z" fill="#DB3934"/>
<path d="M358.969 48H317.319V41.28C317.319 33.02 320.889 28.75 330.759 25.46L342.799 21.54C346.999 20.07 348.539 18.67 348.539 15.59C348.539 12.02 346.579 9.99 338.879 9.99C330.269 9.99 327.679 12.58 327.679 17.76V18.67H317.389V17.76C317.389 8.66 323.619 0.399999 339.229 0.399999C353.369 0.399999 359.109 6.84 359.109 15.73C359.109 24.06 353.649 28.19 345.319 30.5L335.099 33.3C330.549 34.7 328.379 36.03 328.379 39.74L340.629 38.55H358.969V48ZM385.958 48.7C370.838 48.7 362.508 39.18 362.508 24.55C362.508 9.99 370.838 0.399999 385.958 0.399999C401.008 0.399999 409.408 9.99 409.408 24.55C409.408 39.18 401.008 48.7 385.958 48.7ZM385.958 38.48C394.848 38.48 398.138 34.63 398.138 24.55C398.138 14.47 394.848 10.62 385.958 10.62C376.998 10.62 373.778 14.47 373.778 24.55C373.778 34.63 376.998 38.48 385.958 38.48ZM454.33 48H412.68V41.28C412.68 33.02 416.25 28.75 426.12 25.46L438.16 21.54C442.36 20.07 443.9 18.67 443.9 15.59C443.9 12.02 441.94 9.99 434.24 9.99C425.63 9.99 423.04 12.58 423.04 17.76V18.67H412.75V17.76C412.75 8.66 418.98 0.399999 434.59 0.399999C448.73 0.399999 454.47 6.84 454.47 15.73C454.47 24.06 449.01 28.19 440.68 30.5L430.46 33.3C425.91 34.7 423.74 36.03 423.74 39.74L435.99 38.55H454.33V48ZM480.759 48.7C466.059 48.7 458.359 43.73 458.359 33.44V32.81H469.209V33.44C469.209 37.43 472.009 39.11 480.899 39.11C488.949 39.11 491.399 37.22 491.399 32.11C491.399 26.93 488.949 25.04 480.969 25.04C474.529 25.04 471.029 25.81 469.349 28.26L468.579 28.19V28.26L458.709 27.98L461.369 1.1H500.009V10.55H470.679L469.209 22.8L469.839 22.87C471.519 20.14 476.489 16.71 485.239 16.71C496.789 16.71 502.529 22.31 502.529 31.97C502.529 42.12 495.669 48.7 480.759 48.7Z" fill="#FFC257"/>
</svg>
