<svg width="200" height="200" viewBox="0 0 200 200" fill="none" xmlns="http://www.w3.org/2000/svg">
<path d="M0 125C0 111.193 11.1929 100 25 100C38.8071 100 50 111.193 50 125C50 138.807 38.8071 150 25 150C11.1929 150 0 138.807 0 125Z" fill="#177D89"/>
<path d="M0 150H25C38.8071 150 50 161.193 50 175C50 188.807 38.8071 200 25 200H0V150Z" fill="#FFC257"/>
<rect x="50" y="150" width="50" height="50" fill="#177D89"/>
<path d="M100 150H150C150 177.614 127.614 200 100 200V150Z" fill="#084C61"/>
<path d="M150 150C177.614 150 200 172.386 200 200H150V150Z" fill="#DB3934"/>
<path d="M0 0H25C38.8071 0 50 11.1929 50 25C50 38.8071 38.8071 50 25 50C11.1929 50 0 38.8071 0 25V0Z" fill="#DB3934"/>
<path d="M50.0002 100C77.6145 100 100 122.386 100 150H50.0002V100Z" fill="#DB3934"/>
<path d="M99.9998 125C99.9998 111.193 111.193 100 125 100C138.807 100 150 111.193 150 125V150H99.9998V125Z" fill="#177D89"/>
<path d="M50.0002 50H75.0002C88.8074 50 100 61.1929 100 75C100 88.8071 88.8074 100 75.0002 100H50.0002V50Z" fill="#FFC257"/>
<path d="M0 75C0 61.1929 11.1929 50 25 50H50V100H25C11.1929 100 0 88.8071 0 75Z" fill="#084C61"/>
</svg>
