<svg width="200" height="200" viewBox="0 0 200 200" fill="none" xmlns="http://www.w3.org/2000/svg">
<path d="M200 125C200 111.193 188.807 100 175 100V100C161.193 100 150 111.193 150 125V125C150 138.807 161.193 150 175 150V150C188.807 150 200 138.807 200 125V125Z" fill="#177D89"/>
<path d="M200 150H175C161.193 150 150 161.193 150 175V175C150 188.807 161.193 200 175 200H200V150Z" fill="#FFC257"/>
<rect width="50" height="50" transform="matrix(-1 0 0 1 150 150)" fill="#177D89"/>
<path d="M100 150H50V150C50 177.614 72.3858 200 100 200V200V150Z" fill="#084C61"/>
<path d="M50 150V150C22.3858 150 -3.8147e-06 172.386 -3.8147e-06 200V200H50V150Z" fill="#DB3934"/>
<path d="M200 0H175C161.193 0 150 11.1929 150 25V25C150 38.8071 161.193 50 175 50V50C188.807 50 200 38.8071 200 25V0Z" fill="#DB3934"/>
<path d="M150 100V100C122.386 100 100 122.386 100 150V150H150V100Z" fill="#DB3934"/>
<path d="M100 125C100 111.193 88.8071 100 75 100V100C61.1929 100 50 111.193 50 125V150H100V125Z" fill="#177D89"/>
<path d="M150 50H125C111.193 50 100 61.1929 100 75V75C100 88.8071 111.193 100 125 100H150V50Z" fill="#FFC257"/>
<path d="M200 75C200 61.1929 188.807 50 175 50H150V100H175C188.807 100 200 88.8071 200 75V75Z" fill="#084C61"/>
</svg>
