<svg width="567" height="207" viewBox="0 0 567 207" fill="none" xmlns="http://www.w3.org/2000/svg">
<path opacity="0.5" d="M3.88911 52.7113C3.52643 53.7546 2.38664 54.3064 1.34331 53.9437C0.299978 53.581 -0.251796 52.4412 0.110885 51.3979L3.88911 52.7113ZM298.469 52.0546L299.768 50.5342L298.469 52.0546ZM267.42 97.9444L266.42 99.6763L267.42 97.9444ZM394.621 12.9801L395.038 11.024L394.621 12.9801ZM552.914 205.914C552.133 206.695 550.867 206.695 550.086 205.914L537.358 193.186C536.577 192.405 536.577 191.139 537.358 190.358C538.139 189.577 539.405 189.577 540.186 190.358L551.5 201.672L562.814 190.358C563.595 189.577 564.861 189.577 565.642 190.358C566.423 191.139 566.423 192.405 565.642 193.186L552.914 205.914ZM2 52.0546L0.110885 51.3979C5.53917 35.7823 21.9282 23.48 44.0856 14.8662C66.3422 6.21378 94.8782 1.09512 125.406 0.156937C186.389 -1.71727 255.95 13.0837 299.768 50.5342L298.469 52.0546L297.17 53.575C254.409 17.0287 186.002 2.29654 125.529 4.15504C95.3277 5.08321 67.2633 10.1473 45.5349 18.5944C23.7074 27.08 8.72707 38.7939 3.88911 52.7113L2 52.0546ZM298.469 52.0546L299.768 50.5342C308.677 58.1479 313.034 66.0802 313.85 73.585C314.667 81.1027 311.894 87.8798 307.156 93.0682C297.778 103.339 280.364 107.728 266.42 99.6763L267.42 97.9444L268.42 96.2124C280.547 103.215 295.935 99.425 304.202 90.3711C308.288 85.8969 310.548 80.2248 309.873 74.0172C309.197 67.7967 305.539 60.7278 297.17 53.575L298.469 52.0546ZM267.42 97.9444L266.42 99.6763C258.956 95.3665 253.733 90.3559 250.627 84.8455C247.507 79.3109 246.586 73.383 247.558 67.3996C249.487 55.5327 258.803 43.6569 272.591 33.7273C300.24 13.8149 347.096 0.812271 395.038 11.024L394.621 12.9801L394.205 14.9362C347.37 4.96046 301.665 17.7177 274.928 36.9732C261.523 46.6276 253.189 57.6877 251.506 68.0413C250.673 73.1682 251.456 78.1717 254.111 82.8811C256.78 87.6149 261.404 92.1611 268.42 96.2124L267.42 97.9444ZM394.621 12.9801L395.038 11.024C447.117 22.117 486.77 46.3395 513.395 79.9429C540.015 113.54 553.5 156.373 553.5 204.5H551.5H549.5C549.5 157.127 536.235 115.21 510.26 82.427C484.29 49.6504 445.504 25.863 394.205 14.9362L394.621 12.9801Z" fill="white"/>
</svg>
