<svg width="400" height="400" viewBox="0 0 400 400" fill="none" xmlns="http://www.w3.org/2000/svg">
<path opacity="0.6" d="M400 333.333C400 296.514 370.152 266.667 333.333 266.667C296.514 266.667 266.667 296.514 266.667 333.333C266.667 370.152 296.514 400 333.333 400C370.152 400 400 370.152 400 333.333Z" fill="#084C61"/>
<path opacity="0.4" d="M400 0H333.333C296.514 0 266.667 29.8477 266.667 66.6667C266.667 103.486 296.514 133.333 333.333 133.333C370.152 133.333 400 103.486 400 66.6667V0Z" fill="#084C61"/>
<path d="M266.667 266.667H233.333C178.105 266.667 133.333 311.438 133.333 366.667V400H266.667V266.667Z" fill="#084C61"/>
<path opacity="0.4" d="M133.333 333.333C133.333 296.514 103.486 266.667 66.6668 266.667C29.8479 266.667 0.000167847 296.514 0.000167847 333.333V400H133.333V333.333Z" fill="#084C61"/>
<path opacity="0.4" d="M266.667 133.333H200C163.181 133.333 133.333 163.181 133.333 200C133.333 236.819 163.181 266.667 200 266.667H266.667V133.333Z" fill="#084C61"/>
<path d="M400 200C400 163.181 370.152 133.333 333.333 133.333H266.667V266.667H333.333C370.152 266.667 400 236.819 400 200Z" fill="#084C61"/>
</svg>
