<svg width="300" height="300" viewBox="0 0 300 300" fill="none" xmlns="http://www.w3.org/2000/svg">
<path opacity="0.6" d="M300 250C300 222.386 277.614 200 250 200V200C222.386 200 200 222.386 200 250V250C200 277.614 222.386 300 250 300V300C277.614 300 300 277.614 300 250V250Z" fill="#177D89"/>
<path opacity="0.4" d="M300 0H250C222.386 0 200 22.3858 200 50V50C200 77.6142 222.386 100 250 100V100C277.614 100 300 77.6142 300 50V0Z" fill="#177D89"/>
<path d="M200 200V200C144.772 200 100 244.772 100 300V300H200V200Z" fill="#177D89"/>
<path opacity="0.4" d="M100 250C100 222.386 77.6142 200 50 200V200C22.3858 200 0 222.386 0 250V300H100V250Z" fill="#177D89"/>
<path opacity="0.4" d="M200 100H150C122.386 100 100 122.386 100 150V150C100 177.614 122.386 200 150 200H200V100Z" fill="#177D89"/>
<path d="M300 150C300 122.386 277.614 100 250 100H200V200H250C277.614 200 300 177.614 300 150V150Z" fill="#177D89"/>
</svg>
