<svg width="300" height="300" viewBox="0 0 300 300" fill="none" xmlns="http://www.w3.org/2000/svg">
<path d="M0 112.5C0 133.21 16.7893 150 37.5 150C58.2107 150 75 133.21 75 112.5C75 91.7891 58.2107 74.9998 37.5 74.9998C16.7893 74.9998 0 91.7891 0 112.5Z" fill="#177D89"/>
<path d="M0 75H37.5C58.2107 75 75 58.2107 75 37.5C75 16.7893 58.2107 -7.62939e-06 37.5 -7.62939e-06H0V75Z" fill="#FFC257"/>
<rect width="75" height="75" transform="matrix(1 0 0 -1 75 75)" fill="#177D89"/>
<path d="M150 75H225C225 33.5786 191.421 -7.62939e-06 150 -7.62939e-06V75Z" fill="#084C61"/>
<path d="M225 75C266.421 75 300 41.4214 300 -7.62939e-06H225V75Z" fill="#DB3934"/>
<path d="M0 300H37.5C58.2107 300 75 283.211 75 262.5C75 241.789 58.2107 225 37.5 225C16.7893 225 0 241.789 0 262.5V300Z" fill="#DB3934"/>
<path d="M75 150C116.421 150 150 116.421 150 74.9998H75V150Z" fill="#DB3934"/>
<path d="M150 112.5C150 133.21 166.789 150 187.5 150C208.211 150 225 133.21 225 112.5V74.9998H150V112.5Z" fill="#177D89"/>
<path d="M75 225H112.5C133.211 225 150 208.211 150 187.5C150 166.79 133.211 150 112.5 150H75V225Z" fill="#FFC257"/>
<path d="M0 187.5C0 208.211 16.7893 225 37.5 225H75V150H37.5C16.7893 150 0 166.79 0 187.5Z" fill="#084C61"/>
</svg>
