<svg width="300" height="300" viewBox="0 0 300 300" fill="none" xmlns="http://www.w3.org/2000/svg">
<path d="M300 112.5C300 133.21 283.211 150 262.5 150C241.789 150 225 133.21 225 112.5C225 91.7891 241.789 74.9998 262.5 74.9998C283.211 74.9998 300 91.7891 300 112.5Z" fill="#177D89"/>
<path d="M300 75H262.5C241.789 75 225 58.2107 225 37.5C225 16.7893 241.789 -7.62939e-06 262.5 -7.62939e-06H300V75Z" fill="#FFC257"/>
<rect x="225" y="75" width="75" height="75" transform="rotate(180 225 75)" fill="#177D89"/>
<path d="M150 75H75C75 33.5786 108.579 -7.62939e-06 150 -7.62939e-06V75Z" fill="#084C61"/>
<path d="M75 75C33.5786 75 -7.62939e-06 41.4214 -7.62939e-06 -7.62939e-06H75V75Z" fill="#DB3934"/>
<path d="M300 300H262.5C241.789 300 225 283.211 225 262.5C225 241.789 241.789 225 262.5 225C283.211 225 300 241.789 300 262.5V300Z" fill="#DB3934"/>
<path d="M225 150C183.579 150 150 116.421 150 74.9998H225V150Z" fill="#DB3934"/>
<path d="M150 112.5C150 133.21 133.211 150 112.5 150C91.7893 150 75 133.21 75 112.5V74.9998H150V112.5Z" fill="#177D89"/>
<path d="M225 225H187.5C166.789 225 150 208.211 150 187.5C150 166.79 166.789 150 187.5 150H225V225Z" fill="#FFC257"/>
<path d="M300 187.5C300 208.211 283.211 225 262.5 225H225V150H262.5C283.211 150 300 166.79 300 187.5Z" fill="#084C61"/>
</svg>
