<svg width="300" height="300" viewBox="0 0 300 300" fill="none" xmlns="http://www.w3.org/2000/svg">
<path opacity="0.6" d="M0 250C0 222.386 22.3858 200 50 200V200C77.6142 200 100 222.386 100 250V250C100 277.614 77.6142 300 50 300V300C22.3858 300 0 277.614 0 250V250Z" fill="#177D89"/>
<path opacity="0.4" d="M0 0H50C77.6142 0 100 22.3858 100 50V50C100 77.6142 77.6142 100 50 100V100C22.3858 100 0 77.6142 0 50V0Z" fill="#177D89"/>
<path d="M100 200V200C155.228 200 200 244.772 200 300V300H100V200Z" fill="#177D89"/>
<path opacity="0.4" d="M200 250C200 222.386 222.386 200 250 200V200C277.614 200 300 222.386 300 250V300H200V250Z" fill="#177D89"/>
<path opacity="0.4" d="M100 100H150C177.614 100 200 122.386 200 150V150C200 177.614 177.614 200 150 200H100V100Z" fill="#177D89"/>
<path d="M0 150C0 122.386 22.3858 100 50 100H100V200H50C22.3858 200 0 177.614 0 150V150Z" fill="#177D89"/>
</svg>
