<svg width="566" height="402" viewBox="0 0 566 402" fill="none" xmlns="http://www.w3.org/2000/svg">
<rect x="6" y="6" width="554" height="390" fill="white" stroke="#DB3934" stroke-width="12"/>
<path d="M61.8392 166.816H79.3568L97.8585 211.955H98.6458L117.147 166.816H134.665V234H120.887V190.272H120.33L102.943 233.672H93.5611L76.1747 190.108H75.6171V234H61.8392V166.816ZM146.368 234V166.816H191.638V178.528H160.572V194.536H189.309V206.247H160.572V222.289H191.769V234H146.368ZM226.747 234H202.931V166.816H226.944C233.702 166.816 239.519 168.161 244.396 170.851C249.273 173.52 253.024 177.358 255.648 182.366C258.294 187.374 259.617 193.366 259.617 200.343C259.617 207.341 258.294 213.355 255.648 218.385C253.024 223.415 249.251 227.275 244.33 229.965C239.432 232.655 233.57 234 226.747 234ZM217.135 221.83H226.157C230.356 221.83 233.888 221.086 236.753 219.599C239.639 218.09 241.804 215.761 243.248 212.611C244.713 209.44 245.446 205.351 245.446 200.343C245.446 195.378 244.713 191.321 243.248 188.172C241.804 185.023 239.65 182.705 236.785 181.218C233.92 179.731 230.388 178.987 226.189 178.987H217.135V221.83ZM270.139 234V166.816H296.645C301.741 166.816 306.082 167.79 309.669 169.736C313.255 171.661 315.989 174.34 317.87 177.773C319.772 181.185 320.724 185.121 320.724 189.583C320.724 194.044 319.761 197.981 317.837 201.392C315.912 204.804 313.124 207.461 309.472 209.364C305.841 211.267 301.446 212.218 296.284 212.218H279.39V200.835H293.988C296.722 200.835 298.974 200.365 300.746 199.424C302.539 198.462 303.873 197.139 304.748 195.455C305.645 193.749 306.093 191.792 306.093 189.583C306.093 187.352 305.645 185.406 304.748 183.744C303.873 182.06 302.539 180.758 300.746 179.84C298.952 178.899 296.678 178.429 293.922 178.429H284.344V234H270.139ZM333.772 234H318.55L341.743 166.816H360.048L383.208 234H367.987L351.158 182.169H350.633L333.772 234ZM332.82 207.592H368.774V218.68H332.82V207.592ZM391.294 234V166.816H417.8C422.874 166.816 427.204 167.724 430.791 169.539C434.399 171.333 437.144 173.88 439.025 177.183C440.927 180.463 441.879 184.323 441.879 188.763C441.879 193.224 440.916 197.062 438.992 200.277C437.067 203.47 434.279 205.919 430.627 207.625C426.996 209.331 422.601 210.184 417.439 210.184H399.692V198.768H415.143C417.855 198.768 420.108 198.396 421.901 197.653C423.694 196.909 425.028 195.794 425.903 194.307C426.8 192.819 427.248 190.971 427.248 188.763C427.248 186.532 426.8 184.651 425.903 183.12C425.028 181.589 423.683 180.43 421.868 179.643C420.075 178.834 417.811 178.429 415.077 178.429H405.499V234H391.294ZM427.576 203.426L444.273 234H428.593L412.256 203.426H427.576ZM449.358 178.528V166.816H504.535V178.528H483.967V234H469.927V178.528H449.358Z" fill="#DB3934"/>
</svg>
